<?xml version="1.0" encoding="utf-8" standalone="no"?>
<!DOCTYPE svg PUBLIC "-//W3C//DTD SVG 1.1//EN"
  "http://www.w3.org/Graphics/SVG/1.1/DTD/svg11.dtd">
<svg xmlns:xlink="http://www.w3.org/1999/xlink" width="460.8pt" height="345.6pt" viewBox="0 0 460.8 345.6" xmlns="http://www.w3.org/2000/svg" version="1.1">
 <metadata>
  <rdf:RDF xmlns:dc="http://purl.org/dc/elements/1.1/" xmlns:cc="http://creativecommons.org/ns#" xmlns:rdf="http://www.w3.org/1999/02/22-rdf-syntax-ns#">
   <cc:Work>
    <dc:type rdf:resource="http://purl.org/dc/dcmitype/StillImage"/>
    <dc:date>2023-12-08T05:06:31.008056</dc:date>
    <dc:format>image/svg+xml</dc:format>
    <dc:creator>
     <cc:Agent>
      <dc:title>Matplotlib v3.8.0, https://matplotlib.org/</dc:title>
     </cc:Agent>
    </dc:creator>
   </cc:Work>
  </rdf:RDF>
 </metadata>
 <defs>
  <style type="text/css">*{stroke-linejoin: round; stroke-linecap: butt}</style>
 </defs>
 <g id="figure_1">
  <g id="patch_1">
   <path d="M 0 345.6 
L 460.8 345.6 
L 460.8 0 
L 0 0 
z
" style="fill: #ffffff"/>
  </g>
  <g id="axes_1">
   <g id="patch_2">
    <path d="M 57.6 307.584 
L 414.72 307.584 
L 414.72 41.472 
L 57.6 41.472 
z
" style="fill: #ffffff"/>
   </g>
   <g id="matplotlib.axis_1">
    <g id="xtick_1">
     <g id="line2d_1">
      <defs>
       <path id="mbf57763fd8" d="M 0 0 
L 0 3.5 
" style="stroke: #000000; stroke-width: 0.8"/>
      </defs>
      <g>
       <use xlink:href="#mbf57763fd8" x="73.832727" y="307.584" style="stroke: #000000; stroke-width: 0.8"/>
      </g>
     </g>
     <g id="text_1">
      <!-- 0.30 -->
      <g transform="translate(62.699915 322.182437) scale(0.1 -0.1)">
       <defs>
        <path id="DejaVuSans-30" d="M 2034 4250 
Q 1547 4250 1301 3770 
Q 1056 3291 1056 2328 
Q 1056 1369 1301 889 
Q 1547 409 2034 409 
Q 2525 409 2770 889 
Q 3016 1369 3016 2328 
Q 3016 3291 2770 3770 
Q 2525 4250 2034 4250 
z
M 2034 4750 
Q 2819 4750 3233 4129 
Q 3647 3509 3647 2328 
Q 3647 1150 3233 529 
Q 2819 -91 2034 -91 
Q 1250 -91 836 529 
Q 422 1150 422 2328 
Q 422 3509 836 4129 
Q 1250 4750 2034 4750 
z
" transform="scale(0.015625)"/>
        <path id="DejaVuSans-2e" d="M 684 794 
L 1344 794 
L 1344 0 
L 684 0 
L 684 794 
z
" transform="scale(0.015625)"/>
        <path id="DejaVuSans-33" d="M 2597 2516 
Q 3050 2419 3304 2112 
Q 3559 1806 3559 1356 
Q 3559 666 3084 287 
Q 2609 -91 1734 -91 
Q 1441 -91 1130 -33 
Q 819 25 488 141 
L 488 750 
Q 750 597 1062 519 
Q 1375 441 1716 441 
Q 2309 441 2620 675 
Q 2931 909 2931 1356 
Q 2931 1769 2642 2001 
Q 2353 2234 1838 2234 
L 1294 2234 
L 1294 2753 
L 1863 2753 
Q 2328 2753 2575 2939 
Q 2822 3125 2822 3475 
Q 2822 3834 2567 4026 
Q 2313 4219 1838 4219 
Q 1578 4219 1281 4162 
Q 984 4106 628 3988 
L 628 4550 
Q 988 4650 1302 4700 
Q 1616 4750 1894 4750 
Q 2613 4750 3031 4423 
Q 3450 4097 3450 3541 
Q 3450 3153 3228 2886 
Q 3006 2619 2597 2516 
z
" transform="scale(0.015625)"/>
       </defs>
       <use xlink:href="#DejaVuSans-30"/>
       <use xlink:href="#DejaVuSans-2e" x="63.623047"/>
       <use xlink:href="#DejaVuSans-33" x="95.410156"/>
       <use xlink:href="#DejaVuSans-30" x="159.033203"/>
      </g>
     </g>
    </g>
    <g id="xtick_2">
     <g id="line2d_2">
      <g>
       <use xlink:href="#mbf57763fd8" x="127.941818" y="307.584" style="stroke: #000000; stroke-width: 0.8"/>
      </g>
     </g>
     <g id="text_2">
      <!-- 0.35 -->
      <g transform="translate(116.809006 322.182437) scale(0.1 -0.1)">
       <defs>
        <path id="DejaVuSans-35" d="M 691 4666 
L 3169 4666 
L 3169 4134 
L 1269 4134 
L 1269 2991 
Q 1406 3038 1543 3061 
Q 1681 3084 1819 3084 
Q 2600 3084 3056 2656 
Q 3513 2228 3513 1497 
Q 3513 744 3044 326 
Q 2575 -91 1722 -91 
Q 1428 -91 1123 -41 
Q 819 9 494 109 
L 494 744 
Q 775 591 1075 516 
Q 1375 441 1709 441 
Q 2250 441 2565 725 
Q 2881 1009 2881 1497 
Q 2881 1984 2565 2268 
Q 2250 2553 1709 2553 
Q 1456 2553 1204 2497 
Q 953 2441 691 2322 
L 691 4666 
z
" transform="scale(0.015625)"/>
       </defs>
       <use xlink:href="#DejaVuSans-30"/>
       <use xlink:href="#DejaVuSans-2e" x="63.623047"/>
       <use xlink:href="#DejaVuSans-33" x="95.410156"/>
       <use xlink:href="#DejaVuSans-35" x="159.033203"/>
      </g>
     </g>
    </g>
    <g id="xtick_3">
     <g id="line2d_3">
      <g>
       <use xlink:href="#mbf57763fd8" x="182.050909" y="307.584" style="stroke: #000000; stroke-width: 0.8"/>
      </g>
     </g>
     <g id="text_3">
      <!-- 0.40 -->
      <g transform="translate(170.918097 322.182437) scale(0.1 -0.1)">
       <defs>
        <path id="DejaVuSans-34" d="M 2419 4116 
L 825 1625 
L 2419 1625 
L 2419 4116 
z
M 2253 4666 
L 3047 4666 
L 3047 1625 
L 3713 1625 
L 3713 1100 
L 3047 1100 
L 3047 0 
L 2419 0 
L 2419 1100 
L 313 1100 
L 313 1709 
L 2253 4666 
z
" transform="scale(0.015625)"/>
       </defs>
       <use xlink:href="#DejaVuSans-30"/>
       <use xlink:href="#DejaVuSans-2e" x="63.623047"/>
       <use xlink:href="#DejaVuSans-34" x="95.410156"/>
       <use xlink:href="#DejaVuSans-30" x="159.033203"/>
      </g>
     </g>
    </g>
    <g id="xtick_4">
     <g id="line2d_4">
      <g>
       <use xlink:href="#mbf57763fd8" x="236.16" y="307.584" style="stroke: #000000; stroke-width: 0.8"/>
      </g>
     </g>
     <g id="text_4">
      <!-- 0.45 -->
      <g transform="translate(225.027188 322.182437) scale(0.1 -0.1)">
       <use xlink:href="#DejaVuSans-30"/>
       <use xlink:href="#DejaVuSans-2e" x="63.623047"/>
       <use xlink:href="#DejaVuSans-34" x="95.410156"/>
       <use xlink:href="#DejaVuSans-35" x="159.033203"/>
      </g>
     </g>
    </g>
    <g id="xtick_5">
     <g id="line2d_5">
      <g>
       <use xlink:href="#mbf57763fd8" x="290.269091" y="307.584" style="stroke: #000000; stroke-width: 0.8"/>
      </g>
     </g>
     <g id="text_5">
      <!-- 0.50 -->
      <g transform="translate(279.136278 322.182437) scale(0.1 -0.1)">
       <use xlink:href="#DejaVuSans-30"/>
       <use xlink:href="#DejaVuSans-2e" x="63.623047"/>
       <use xlink:href="#DejaVuSans-35" x="95.410156"/>
       <use xlink:href="#DejaVuSans-30" x="159.033203"/>
      </g>
     </g>
    </g>
    <g id="xtick_6">
     <g id="line2d_6">
      <g>
       <use xlink:href="#mbf57763fd8" x="344.378182" y="307.584" style="stroke: #000000; stroke-width: 0.8"/>
      </g>
     </g>
     <g id="text_6">
      <!-- 0.55 -->
      <g transform="translate(333.245369 322.182437) scale(0.1 -0.1)">
       <use xlink:href="#DejaVuSans-30"/>
       <use xlink:href="#DejaVuSans-2e" x="63.623047"/>
       <use xlink:href="#DejaVuSans-35" x="95.410156"/>
       <use xlink:href="#DejaVuSans-35" x="159.033203"/>
      </g>
     </g>
    </g>
    <g id="xtick_7">
     <g id="line2d_7">
      <g>
       <use xlink:href="#mbf57763fd8" x="398.487273" y="307.584" style="stroke: #000000; stroke-width: 0.8"/>
      </g>
     </g>
     <g id="text_7">
      <!-- 0.60 -->
      <g transform="translate(387.35446 322.182437) scale(0.1 -0.1)">
       <defs>
        <path id="DejaVuSans-36" d="M 2113 2584 
Q 1688 2584 1439 2293 
Q 1191 2003 1191 1497 
Q 1191 994 1439 701 
Q 1688 409 2113 409 
Q 2538 409 2786 701 
Q 3034 994 3034 1497 
Q 3034 2003 2786 2293 
Q 2538 2584 2113 2584 
z
M 3366 4563 
L 3366 3988 
Q 3128 4100 2886 4159 
Q 2644 4219 2406 4219 
Q 1781 4219 1451 3797 
Q 1122 3375 1075 2522 
Q 1259 2794 1537 2939 
Q 1816 3084 2150 3084 
Q 2853 3084 3261 2657 
Q 3669 2231 3669 1497 
Q 3669 778 3244 343 
Q 2819 -91 2113 -91 
Q 1303 -91 875 529 
Q 447 1150 447 2328 
Q 447 3434 972 4092 
Q 1497 4750 2381 4750 
Q 2619 4750 2861 4703 
Q 3103 4656 3366 4563 
z
" transform="scale(0.015625)"/>
       </defs>
       <use xlink:href="#DejaVuSans-30"/>
       <use xlink:href="#DejaVuSans-2e" x="63.623047"/>
       <use xlink:href="#DejaVuSans-36" x="95.410156"/>
       <use xlink:href="#DejaVuSans-30" x="159.033203"/>
      </g>
     </g>
    </g>
    <g id="text_8">
     <!-- J / $\beta$ -->
     <g transform="translate(226.61 335.962125) scale(0.1 -0.1)">
      <defs>
       <path id="DejaVuSans-4a" d="M 628 4666 
L 1259 4666 
L 1259 325 
Q 1259 -519 939 -900 
Q 619 -1281 -91 -1281 
L -331 -1281 
L -331 -750 
L -134 -750 
Q 284 -750 456 -515 
Q 628 -281 628 325 
L 628 4666 
z
" transform="scale(0.015625)"/>
       <path id="DejaVuSans-20" transform="scale(0.015625)"/>
       <path id="DejaVuSans-2f" d="M 1625 4666 
L 2156 4666 
L 531 -594 
L 0 -594 
L 1625 4666 
z
" transform="scale(0.015625)"/>
       <path id="DejaVuSans-Oblique-3b2" d="M 872 216 
L 572 -1331 
L -6 -1331 
L 928 3478 
Q 1206 4903 2538 4903 
Q 3888 4903 3659 3700 
Q 3503 2844 2894 2531 
Q 3713 2250 3553 1416 
Q 3272 -69 1759 -66 
Q 1097 -63 872 216 
z
M 1019 966 
Q 1259 422 1875 425 
Q 2775 425 2966 1406 
Q 3138 2288 1675 2219 
L 1778 2750 
Q 2909 2731 3106 3750 
Q 3241 4438 2509 4434 
Q 1691 4434 1503 3459 
L 1019 966 
z
" transform="scale(0.015625)"/>
      </defs>
      <use xlink:href="#DejaVuSans-4a" transform="translate(0 0.390625)"/>
      <use xlink:href="#DejaVuSans-20" transform="translate(29.492188 0.390625)"/>
      <use xlink:href="#DejaVuSans-2f" transform="translate(61.279297 0.390625)"/>
      <use xlink:href="#DejaVuSans-20" transform="translate(94.970703 0.390625)"/>
      <use xlink:href="#DejaVuSans-Oblique-3b2" transform="translate(126.757812 0.390625)"/>
     </g>
    </g>
   </g>
   <g id="matplotlib.axis_2">
    <g id="ytick_1">
     <g id="line2d_8">
      <defs>
       <path id="m4f4f376ebb" d="M 0 0 
L -3.5 0 
" style="stroke: #000000; stroke-width: 0.8"/>
      </defs>
      <g>
       <use xlink:href="#m4f4f376ebb" x="57.6" y="276.559465" style="stroke: #000000; stroke-width: 0.8"/>
      </g>
     </g>
     <g id="text_9">
      <!-- 0.0 -->
      <g transform="translate(34.696875 280.358684) scale(0.1 -0.1)">
       <use xlink:href="#DejaVuSans-30"/>
       <use xlink:href="#DejaVuSans-2e" x="63.623047"/>
       <use xlink:href="#DejaVuSans-30" x="95.410156"/>
      </g>
     </g>
    </g>
    <g id="ytick_2">
     <g id="line2d_9">
      <g>
       <use xlink:href="#m4f4f376ebb" x="57.6" y="230.889054" style="stroke: #000000; stroke-width: 0.8"/>
      </g>
     </g>
     <g id="text_10">
      <!-- 0.2 -->
      <g transform="translate(34.696875 234.688273) scale(0.1 -0.1)">
       <defs>
        <path id="DejaVuSans-32" d="M 1228 531 
L 3431 531 
L 3431 0 
L 469 0 
L 469 531 
Q 828 903 1448 1529 
Q 2069 2156 2228 2338 
Q 2531 2678 2651 2914 
Q 2772 3150 2772 3378 
Q 2772 3750 2511 3984 
Q 2250 4219 1831 4219 
Q 1534 4219 1204 4116 
Q 875 4013 500 3803 
L 500 4441 
Q 881 4594 1212 4672 
Q 1544 4750 1819 4750 
Q 2544 4750 2975 4387 
Q 3406 4025 3406 3419 
Q 3406 3131 3298 2873 
Q 3191 2616 2906 2266 
Q 2828 2175 2409 1742 
Q 1991 1309 1228 531 
z
" transform="scale(0.015625)"/>
       </defs>
       <use xlink:href="#DejaVuSans-30"/>
       <use xlink:href="#DejaVuSans-2e" x="63.623047"/>
       <use xlink:href="#DejaVuSans-32" x="95.410156"/>
      </g>
     </g>
    </g>
    <g id="ytick_3">
     <g id="line2d_10">
      <g>
       <use xlink:href="#m4f4f376ebb" x="57.6" y="185.218644" style="stroke: #000000; stroke-width: 0.8"/>
      </g>
     </g>
     <g id="text_11">
      <!-- 0.4 -->
      <g transform="translate(34.696875 189.017862) scale(0.1 -0.1)">
       <use xlink:href="#DejaVuSans-30"/>
       <use xlink:href="#DejaVuSans-2e" x="63.623047"/>
       <use xlink:href="#DejaVuSans-34" x="95.410156"/>
      </g>
     </g>
    </g>
    <g id="ytick_4">
     <g id="line2d_11">
      <g>
       <use xlink:href="#m4f4f376ebb" x="57.6" y="139.548233" style="stroke: #000000; stroke-width: 0.8"/>
      </g>
     </g>
     <g id="text_12">
      <!-- 0.6 -->
      <g transform="translate(34.696875 143.347452) scale(0.1 -0.1)">
       <use xlink:href="#DejaVuSans-30"/>
       <use xlink:href="#DejaVuSans-2e" x="63.623047"/>
       <use xlink:href="#DejaVuSans-36" x="95.410156"/>
      </g>
     </g>
    </g>
    <g id="ytick_5">
     <g id="line2d_12">
      <g>
       <use xlink:href="#m4f4f376ebb" x="57.6" y="93.877822" style="stroke: #000000; stroke-width: 0.8"/>
      </g>
     </g>
     <g id="text_13">
      <!-- 0.8 -->
      <g transform="translate(34.696875 97.677041) scale(0.1 -0.1)">
       <defs>
        <path id="DejaVuSans-38" d="M 2034 2216 
Q 1584 2216 1326 1975 
Q 1069 1734 1069 1313 
Q 1069 891 1326 650 
Q 1584 409 2034 409 
Q 2484 409 2743 651 
Q 3003 894 3003 1313 
Q 3003 1734 2745 1975 
Q 2488 2216 2034 2216 
z
M 1403 2484 
Q 997 2584 770 2862 
Q 544 3141 544 3541 
Q 544 4100 942 4425 
Q 1341 4750 2034 4750 
Q 2731 4750 3128 4425 
Q 3525 4100 3525 3541 
Q 3525 3141 3298 2862 
Q 3072 2584 2669 2484 
Q 3125 2378 3379 2068 
Q 3634 1759 3634 1313 
Q 3634 634 3220 271 
Q 2806 -91 2034 -91 
Q 1263 -91 848 271 
Q 434 634 434 1313 
Q 434 1759 690 2068 
Q 947 2378 1403 2484 
z
M 1172 3481 
Q 1172 3119 1398 2916 
Q 1625 2713 2034 2713 
Q 2441 2713 2670 2916 
Q 2900 3119 2900 3481 
Q 2900 3844 2670 4047 
Q 2441 4250 2034 4250 
Q 1625 4250 1398 4047 
Q 1172 3844 1172 3481 
z
" transform="scale(0.015625)"/>
       </defs>
       <use xlink:href="#DejaVuSans-30"/>
       <use xlink:href="#DejaVuSans-2e" x="63.623047"/>
       <use xlink:href="#DejaVuSans-38" x="95.410156"/>
      </g>
     </g>
    </g>
    <g id="ytick_6">
     <g id="line2d_13">
      <g>
       <use xlink:href="#m4f4f376ebb" x="57.6" y="48.207412" style="stroke: #000000; stroke-width: 0.8"/>
      </g>
     </g>
     <g id="text_14">
      <!-- 1.0 -->
      <g transform="translate(34.696875 52.006631) scale(0.1 -0.1)">
       <defs>
        <path id="DejaVuSans-31" d="M 794 531 
L 1825 531 
L 1825 4091 
L 703 3866 
L 703 4441 
L 1819 4666 
L 2450 4666 
L 2450 531 
L 3481 531 
L 3481 0 
L 794 0 
L 794 531 
z
" transform="scale(0.015625)"/>
       </defs>
       <use xlink:href="#DejaVuSans-31"/>
       <use xlink:href="#DejaVuSans-2e" x="63.623047"/>
       <use xlink:href="#DejaVuSans-30" x="95.410156"/>
      </g>
     </g>
    </g>
    <g id="text_15">
     <!-- Abs. Mag, $|M_s|$ -->
     <g transform="translate(28.296875 210.328) rotate(-90) scale(0.1 -0.1)">
      <defs>
       <path id="DejaVuSans-41" d="M 2188 4044 
L 1331 1722 
L 3047 1722 
L 2188 4044 
z
M 1831 4666 
L 2547 4666 
L 4325 0 
L 3669 0 
L 3244 1197 
L 1141 1197 
L 716 0 
L 50 0 
L 1831 4666 
z
" transform="scale(0.015625)"/>
       <path id="DejaVuSans-62" d="M 3116 1747 
Q 3116 2381 2855 2742 
Q 2594 3103 2138 3103 
Q 1681 3103 1420 2742 
Q 1159 2381 1159 1747 
Q 1159 1113 1420 752 
Q 1681 391 2138 391 
Q 2594 391 2855 752 
Q 3116 1113 3116 1747 
z
M 1159 2969 
Q 1341 3281 1617 3432 
Q 1894 3584 2278 3584 
Q 2916 3584 3314 3078 
Q 3713 2572 3713 1747 
Q 3713 922 3314 415 
Q 2916 -91 2278 -91 
Q 1894 -91 1617 61 
Q 1341 213 1159 525 
L 1159 0 
L 581 0 
L 581 4863 
L 1159 4863 
L 1159 2969 
z
" transform="scale(0.015625)"/>
       <path id="DejaVuSans-73" d="M 2834 3397 
L 2834 2853 
Q 2591 2978 2328 3040 
Q 2066 3103 1784 3103 
Q 1356 3103 1142 2972 
Q 928 2841 928 2578 
Q 928 2378 1081 2264 
Q 1234 2150 1697 2047 
L 1894 2003 
Q 2506 1872 2764 1633 
Q 3022 1394 3022 966 
Q 3022 478 2636 193 
Q 2250 -91 1575 -91 
Q 1294 -91 989 -36 
Q 684 19 347 128 
L 347 722 
Q 666 556 975 473 
Q 1284 391 1588 391 
Q 1994 391 2212 530 
Q 2431 669 2431 922 
Q 2431 1156 2273 1281 
Q 2116 1406 1581 1522 
L 1381 1569 
Q 847 1681 609 1914 
Q 372 2147 372 2553 
Q 372 3047 722 3315 
Q 1072 3584 1716 3584 
Q 2034 3584 2315 3537 
Q 2597 3491 2834 3397 
z
" transform="scale(0.015625)"/>
       <path id="DejaVuSans-4d" d="M 628 4666 
L 1569 4666 
L 2759 1491 
L 3956 4666 
L 4897 4666 
L 4897 0 
L 4281 0 
L 4281 4097 
L 3078 897 
L 2444 897 
L 1241 4097 
L 1241 0 
L 628 0 
L 628 4666 
z
" transform="scale(0.015625)"/>
       <path id="DejaVuSans-61" d="M 2194 1759 
Q 1497 1759 1228 1600 
Q 959 1441 959 1056 
Q 959 750 1161 570 
Q 1363 391 1709 391 
Q 2188 391 2477 730 
Q 2766 1069 2766 1631 
L 2766 1759 
L 2194 1759 
z
M 3341 1997 
L 3341 0 
L 2766 0 
L 2766 531 
Q 2569 213 2275 61 
Q 1981 -91 1556 -91 
Q 1019 -91 701 211 
Q 384 513 384 1019 
Q 384 1609 779 1909 
Q 1175 2209 1959 2209 
L 2766 2209 
L 2766 2266 
Q 2766 2663 2505 2880 
Q 2244 3097 1772 3097 
Q 1472 3097 1187 3025 
Q 903 2953 641 2809 
L 641 3341 
Q 956 3463 1253 3523 
Q 1550 3584 1831 3584 
Q 2591 3584 2966 3190 
Q 3341 2797 3341 1997 
z
" transform="scale(0.015625)"/>
       <path id="DejaVuSans-67" d="M 2906 1791 
Q 2906 2416 2648 2759 
Q 2391 3103 1925 3103 
Q 1463 3103 1205 2759 
Q 947 2416 947 1791 
Q 947 1169 1205 825 
Q 1463 481 1925 481 
Q 2391 481 2648 825 
Q 2906 1169 2906 1791 
z
M 3481 434 
Q 3481 -459 3084 -895 
Q 2688 -1331 1869 -1331 
Q 1566 -1331 1297 -1286 
Q 1028 -1241 775 -1147 
L 775 -588 
Q 1028 -725 1275 -790 
Q 1522 -856 1778 -856 
Q 2344 -856 2625 -561 
Q 2906 -266 2906 331 
L 2906 616 
Q 2728 306 2450 153 
Q 2172 0 1784 0 
Q 1141 0 747 490 
Q 353 981 353 1791 
Q 353 2603 747 3093 
Q 1141 3584 1784 3584 
Q 2172 3584 2450 3431 
Q 2728 3278 2906 2969 
L 2906 3500 
L 3481 3500 
L 3481 434 
z
" transform="scale(0.015625)"/>
       <path id="DejaVuSans-2c" d="M 750 794 
L 1409 794 
L 1409 256 
L 897 -744 
L 494 -744 
L 750 256 
L 750 794 
z
" transform="scale(0.015625)"/>
       <path id="DejaVuSans-7c" d="M 1344 4891 
L 1344 -1509 
L 813 -1509 
L 813 4891 
L 1344 4891 
z
" transform="scale(0.015625)"/>
       <path id="DejaVuSans-Oblique-4d" d="M 1081 4666 
L 2028 4666 
L 2572 1522 
L 4378 4666 
L 5350 4666 
L 4441 0 
L 3828 0 
L 4622 4091 
L 2791 897 
L 2175 897 
L 1581 4103 
L 788 0 
L 172 0 
L 1081 4666 
z
" transform="scale(0.015625)"/>
       <path id="DejaVuSans-Oblique-73" d="M 3200 3397 
L 3091 2853 
Q 2863 2978 2609 3040 
Q 2356 3103 2088 3103 
Q 1634 3103 1373 2948 
Q 1113 2794 1113 2528 
Q 1113 2219 1719 2053 
Q 1766 2041 1788 2034 
L 1972 1978 
Q 2547 1819 2739 1644 
Q 2931 1469 2931 1166 
Q 2931 609 2489 259 
Q 2047 -91 1331 -91 
Q 1053 -91 747 -37 
Q 441 16 72 128 
L 184 722 
Q 500 559 806 475 
Q 1113 391 1394 391 
Q 1816 391 2080 572 
Q 2344 753 2344 1031 
Q 2344 1331 1650 1516 
L 1591 1531 
L 1394 1581 
Q 956 1697 753 1886 
Q 550 2075 550 2369 
Q 550 2928 970 3256 
Q 1391 3584 2113 3584 
Q 2397 3584 2667 3537 
Q 2938 3491 3200 3397 
z
" transform="scale(0.015625)"/>
      </defs>
      <use xlink:href="#DejaVuSans-41" transform="translate(0 0.578125)"/>
      <use xlink:href="#DejaVuSans-62" transform="translate(68.408203 0.578125)"/>
      <use xlink:href="#DejaVuSans-73" transform="translate(131.884766 0.578125)"/>
      <use xlink:href="#DejaVuSans-2e" transform="translate(183.984375 0.578125)"/>
      <use xlink:href="#DejaVuSans-20" transform="translate(215.771484 0.578125)"/>
      <use xlink:href="#DejaVuSans-4d" transform="translate(247.558594 0.578125)"/>
      <use xlink:href="#DejaVuSans-61" transform="translate(333.837891 0.578125)"/>
      <use xlink:href="#DejaVuSans-67" transform="translate(395.117188 0.578125)"/>
      <use xlink:href="#DejaVuSans-2c" transform="translate(458.59375 0.578125)"/>
      <use xlink:href="#DejaVuSans-20" transform="translate(490.380859 0.578125)"/>
      <use xlink:href="#DejaVuSans-7c" transform="translate(522.167969 0.578125)"/>
      <use xlink:href="#DejaVuSans-Oblique-4d" transform="translate(555.859375 0.578125)"/>
      <use xlink:href="#DejaVuSans-Oblique-73" transform="translate(642.138672 -15.828125) scale(0.7)"/>
      <use xlink:href="#DejaVuSans-7c" transform="translate(681.342773 0.578125)"/>
     </g>
    </g>
   </g>
   <g id="LineCollection_1">
    <path d="M 73.832727 282.276152 
L 73.832727 270.502077 
" clip-path="url(#padc0b52999)" style="fill: none; stroke: #008000; stroke-width: 1.5"/>
    <path d="M 76.560917 281.24883 
L 76.560917 269.769261 
" clip-path="url(#padc0b52999)" style="fill: none; stroke: #008000; stroke-width: 1.5"/>
    <path d="M 79.289106 281.893531 
L 79.289106 267.201836 
" clip-path="url(#padc0b52999)" style="fill: none; stroke: #008000; stroke-width: 1.5"/>
    <path d="M 82.017296 281.726706 
L 82.017296 271.05609 
" clip-path="url(#padc0b52999)" style="fill: none; stroke: #008000; stroke-width: 1.5"/>
    <path d="M 84.745485 282.624683 
L 84.745485 269.299509 
" clip-path="url(#padc0b52999)" style="fill: none; stroke: #008000; stroke-width: 1.5"/>
    <path d="M 87.473675 282.375918 
L 87.473675 268.982875 
" clip-path="url(#padc0b52999)" style="fill: none; stroke: #008000; stroke-width: 1.5"/>
    <path d="M 90.201864 282.655644 
L 90.201864 270.368291 
" clip-path="url(#padc0b52999)" style="fill: none; stroke: #008000; stroke-width: 1.5"/>
    <path d="M 92.930053 282.978681 
L 92.930053 269.761185 
" clip-path="url(#padc0b52999)" style="fill: none; stroke: #008000; stroke-width: 1.5"/>
    <path d="M 95.658243 280.65732 
L 95.658243 266.719012 
" clip-path="url(#padc0b52999)" style="fill: none; stroke: #008000; stroke-width: 1.5"/>
    <path d="M 98.386432 280.883119 
L 98.386432 268.512759 
" clip-path="url(#padc0b52999)" style="fill: none; stroke: #008000; stroke-width: 1.5"/>
    <path d="M 101.114622 283.48107 
L 101.114622 269.299899 
" clip-path="url(#padc0b52999)" style="fill: none; stroke: #008000; stroke-width: 1.5"/>
    <path d="M 103.842811 283.089477 
L 103.842811 267.091932 
" clip-path="url(#padc0b52999)" style="fill: none; stroke: #008000; stroke-width: 1.5"/>
    <path d="M 106.571001 284.299119 
L 106.571001 268.127448 
" clip-path="url(#padc0b52999)" style="fill: none; stroke: #008000; stroke-width: 1.5"/>
    <path d="M 109.29919 280.534766 
L 109.29919 266.892717 
" clip-path="url(#padc0b52999)" style="fill: none; stroke: #008000; stroke-width: 1.5"/>
    <path d="M 112.02738 283.108532 
L 112.02738 269.586576 
" clip-path="url(#padc0b52999)" style="fill: none; stroke: #008000; stroke-width: 1.5"/>
    <path d="M 114.755569 284.249782 
L 114.755569 268.111933 
" clip-path="url(#padc0b52999)" style="fill: none; stroke: #008000; stroke-width: 1.5"/>
    <path d="M 117.483759 286.438809 
L 117.483759 265.631528 
" clip-path="url(#padc0b52999)" style="fill: none; stroke: #008000; stroke-width: 1.5"/>
    <path d="M 120.211948 278.674561 
L 120.211948 267.21109 
" clip-path="url(#padc0b52999)" style="fill: none; stroke: #008000; stroke-width: 1.5"/>
    <path d="M 122.940138 278.53218 
L 122.940138 264.448832 
" clip-path="url(#padc0b52999)" style="fill: none; stroke: #008000; stroke-width: 1.5"/>
    <path d="M 125.668327 282.228145 
L 125.668327 264.60745 
" clip-path="url(#padc0b52999)" style="fill: none; stroke: #008000; stroke-width: 1.5"/>
    <path d="M 128.396516 283.48575 
L 128.396516 267.704975 
" clip-path="url(#padc0b52999)" style="fill: none; stroke: #008000; stroke-width: 1.5"/>
    <path d="M 131.124706 282.41506 
L 131.124706 266.787175 
" clip-path="url(#padc0b52999)" style="fill: none; stroke: #008000; stroke-width: 1.5"/>
    <path d="M 133.852895 282.247092 
L 133.852895 262.695007 
" clip-path="url(#padc0b52999)" style="fill: none; stroke: #008000; stroke-width: 1.5"/>
    <path d="M 136.581085 287.155134 
L 136.581085 265.292441 
" clip-path="url(#padc0b52999)" style="fill: none; stroke: #008000; stroke-width: 1.5"/>
    <path d="M 139.309274 282.521262 
L 139.309274 263.507794 
" clip-path="url(#padc0b52999)" style="fill: none; stroke: #008000; stroke-width: 1.5"/>
    <path d="M 142.037464 282.371336 
L 142.037464 266.115701 
" clip-path="url(#padc0b52999)" style="fill: none; stroke: #008000; stroke-width: 1.5"/>
    <path d="M 144.765653 282.655766 
L 144.765653 264.118631 
" clip-path="url(#padc0b52999)" style="fill: none; stroke: #008000; stroke-width: 1.5"/>
    <path d="M 147.493843 283.113525 
L 147.493843 260.63475 
" clip-path="url(#padc0b52999)" style="fill: none; stroke: #008000; stroke-width: 1.5"/>
    <path d="M 150.222032 280.376888 
L 150.222032 264.440075 
" clip-path="url(#padc0b52999)" style="fill: none; stroke: #008000; stroke-width: 1.5"/>
    <path d="M 152.950222 285.251377 
L 152.950222 266.971499 
" clip-path="url(#padc0b52999)" style="fill: none; stroke: #008000; stroke-width: 1.5"/>
    <path d="M 155.678411 287.894431 
L 155.678411 261.763596 
" clip-path="url(#padc0b52999)" style="fill: none; stroke: #008000; stroke-width: 1.5"/>
    <path d="M 158.4066 281.625987 
L 158.4066 266.867444 
" clip-path="url(#padc0b52999)" style="fill: none; stroke: #008000; stroke-width: 1.5"/>
    <path d="M 161.13479 279.653424 
L 161.13479 260.563615 
" clip-path="url(#padc0b52999)" style="fill: none; stroke: #008000; stroke-width: 1.5"/>
    <path d="M 163.862979 283.842764 
L 163.862979 265.490089 
" clip-path="url(#padc0b52999)" style="fill: none; stroke: #008000; stroke-width: 1.5"/>
    <path d="M 166.591169 282.136878 
L 166.591169 265.828603 
" clip-path="url(#padc0b52999)" style="fill: none; stroke: #008000; stroke-width: 1.5"/>
    <path d="M 169.319358 283.09091 
L 169.319358 261.989114 
" clip-path="url(#padc0b52999)" style="fill: none; stroke: #008000; stroke-width: 1.5"/>
    <path d="M 172.047548 284.027173 
L 172.047548 260.162279 
" clip-path="url(#padc0b52999)" style="fill: none; stroke: #008000; stroke-width: 1.5"/>
    <path d="M 174.775737 283.671859 
L 174.775737 250.462794 
" clip-path="url(#padc0b52999)" style="fill: none; stroke: #008000; stroke-width: 1.5"/>
    <path d="M 177.503927 293.791959 
L 177.503927 251.359311 
" clip-path="url(#padc0b52999)" style="fill: none; stroke: #008000; stroke-width: 1.5"/>
    <path d="M 180.232116 282.649919 
L 180.232116 261.066387 
" clip-path="url(#padc0b52999)" style="fill: none; stroke: #008000; stroke-width: 1.5"/>
    <path d="M 182.960306 281.902349 
L 182.960306 263.690098 
" clip-path="url(#padc0b52999)" style="fill: none; stroke: #008000; stroke-width: 1.5"/>
    <path d="M 185.688495 264.006262 
L 185.688495 245.485552 
" clip-path="url(#padc0b52999)" style="fill: none; stroke: #008000; stroke-width: 1.5"/>
    <path d="M 188.416684 283.572612 
L 188.416684 244.28784 
" clip-path="url(#padc0b52999)" style="fill: none; stroke: #008000; stroke-width: 1.5"/>
    <path d="M 191.144874 274.478242 
L 191.144874 243.467164 
" clip-path="url(#padc0b52999)" style="fill: none; stroke: #008000; stroke-width: 1.5"/>
    <path d="M 193.873063 295.488 
L 193.873063 250.567544 
" clip-path="url(#padc0b52999)" style="fill: none; stroke: #008000; stroke-width: 1.5"/>
    <path d="M 196.601253 292.521812 
L 196.601253 257.89069 
" clip-path="url(#padc0b52999)" style="fill: none; stroke: #008000; stroke-width: 1.5"/>
    <path d="M 199.329442 289.461338 
L 199.329442 259.299721 
" clip-path="url(#padc0b52999)" style="fill: none; stroke: #008000; stroke-width: 1.5"/>
    <path d="M 202.057632 285.904497 
L 202.057632 258.246591 
" clip-path="url(#padc0b52999)" style="fill: none; stroke: #008000; stroke-width: 1.5"/>
    <path d="M 204.785821 251.056798 
L 204.785821 232.623013 
" clip-path="url(#padc0b52999)" style="fill: none; stroke: #008000; stroke-width: 1.5"/>
    <path d="M 207.514011 280.483545 
L 207.514011 252.16134 
" clip-path="url(#padc0b52999)" style="fill: none; stroke: #008000; stroke-width: 1.5"/>
    <path d="M 210.2422 279.361143 
L 210.2422 256.169198 
" clip-path="url(#padc0b52999)" style="fill: none; stroke: #008000; stroke-width: 1.5"/>
    <path d="M 212.97039 245.393947 
L 212.97039 216.553142 
" clip-path="url(#padc0b52999)" style="fill: none; stroke: #008000; stroke-width: 1.5"/>
    <path d="M 215.698579 216.064988 
L 215.698579 180.100268 
" clip-path="url(#padc0b52999)" style="fill: none; stroke: #008000; stroke-width: 1.5"/>
    <path d="M 218.426769 158.509944 
L 218.426769 137.004122 
" clip-path="url(#padc0b52999)" style="fill: none; stroke: #008000; stroke-width: 1.5"/>
    <path d="M 221.154958 284.659244 
L 221.154958 230.721312 
" clip-path="url(#padc0b52999)" style="fill: none; stroke: #008000; stroke-width: 1.5"/>
    <path d="M 223.883147 186.376106 
L 223.883147 168.765248 
" clip-path="url(#padc0b52999)" style="fill: none; stroke: #008000; stroke-width: 1.5"/>
    <path d="M 226.611337 135.880573 
L 226.611337 117.799397 
" clip-path="url(#padc0b52999)" style="fill: none; stroke: #008000; stroke-width: 1.5"/>
    <path d="M 229.339526 231.881189 
L 229.339526 219.898753 
" clip-path="url(#padc0b52999)" style="fill: none; stroke: #008000; stroke-width: 1.5"/>
    <path d="M 232.067716 116.969807 
L 232.067716 104.032983 
" clip-path="url(#padc0b52999)" style="fill: none; stroke: #008000; stroke-width: 1.5"/>
    <path d="M 234.795905 107.442715 
L 234.795905 96.319495 
" clip-path="url(#padc0b52999)" style="fill: none; stroke: #008000; stroke-width: 1.5"/>
    <path d="M 237.524095 117.767733 
L 237.524095 98.285299 
" clip-path="url(#padc0b52999)" style="fill: none; stroke: #008000; stroke-width: 1.5"/>
    <path d="M 240.252284 102.517905 
L 240.252284 87.416218 
" clip-path="url(#padc0b52999)" style="fill: none; stroke: #008000; stroke-width: 1.5"/>
    <path d="M 242.980474 93.770737 
L 242.980474 87.190065 
" clip-path="url(#padc0b52999)" style="fill: none; stroke: #008000; stroke-width: 1.5"/>
    <path d="M 245.708663 105.450457 
L 245.708663 91.258415 
" clip-path="url(#padc0b52999)" style="fill: none; stroke: #008000; stroke-width: 1.5"/>
    <path d="M 248.436853 93.570311 
L 248.436853 85.075 
" clip-path="url(#padc0b52999)" style="fill: none; stroke: #008000; stroke-width: 1.5"/>
    <path d="M 251.165042 87.522015 
L 251.165042 81.637552 
" clip-path="url(#padc0b52999)" style="fill: none; stroke: #008000; stroke-width: 1.5"/>
    <path d="M 253.893231 85.317722 
L 253.893231 77.969544 
" clip-path="url(#padc0b52999)" style="fill: none; stroke: #008000; stroke-width: 1.5"/>
    <path d="M 262.0778 82.719297 
L 262.0778 76.8029 
" clip-path="url(#padc0b52999)" style="fill: none; stroke: #008000; stroke-width: 1.5"/>
    <path d="M 264.805989 80.048737 
L 264.805989 74.530095 
" clip-path="url(#padc0b52999)" style="fill: none; stroke: #008000; stroke-width: 1.5"/>
    <path d="M 270.262368 78.477105 
L 270.262368 72.892011 
" clip-path="url(#padc0b52999)" style="fill: none; stroke: #008000; stroke-width: 1.5"/>
    <path d="M 272.990558 78.371875 
L 272.990558 72.384343 
" clip-path="url(#padc0b52999)" style="fill: none; stroke: #008000; stroke-width: 1.5"/>
    <path d="M 275.718747 75.52009 
L 275.718747 70.101861 
" clip-path="url(#padc0b52999)" style="fill: none; stroke: #008000; stroke-width: 1.5"/>
    <path d="M 278.446937 75.766467 
L 278.446937 70.338677 
" clip-path="url(#padc0b52999)" style="fill: none; stroke: #008000; stroke-width: 1.5"/>
    <path d="M 283.903316 72.580985 
L 283.903316 67.951456 
" clip-path="url(#padc0b52999)" style="fill: none; stroke: #008000; stroke-width: 1.5"/>
    <path d="M 286.631505 70.54321 
L 286.631505 67.470051 
" clip-path="url(#padc0b52999)" style="fill: none; stroke: #008000; stroke-width: 1.5"/>
    <path d="M 292.087884 69.487746 
L 292.087884 66.216418 
" clip-path="url(#padc0b52999)" style="fill: none; stroke: #008000; stroke-width: 1.5"/>
    <path d="M 297.544263 68.281349 
L 297.544263 64.506303 
" clip-path="url(#padc0b52999)" style="fill: none; stroke: #008000; stroke-width: 1.5"/>
    <path d="M 303.000642 66.937705 
L 303.000642 63.754589 
" clip-path="url(#padc0b52999)" style="fill: none; stroke: #008000; stroke-width: 1.5"/>
    <path d="M 305.728831 66.250979 
L 305.728831 63.396376 
" clip-path="url(#padc0b52999)" style="fill: none; stroke: #008000; stroke-width: 1.5"/>
    <path d="M 311.18521 65.846562 
L 311.18521 61.952055 
" clip-path="url(#padc0b52999)" style="fill: none; stroke: #008000; stroke-width: 1.5"/>
    <path d="M 316.641589 63.431538 
L 316.641589 61.072415 
" clip-path="url(#padc0b52999)" style="fill: none; stroke: #008000; stroke-width: 1.5"/>
    <path d="M 319.369778 63.834701 
L 319.369778 60.778861 
" clip-path="url(#padc0b52999)" style="fill: none; stroke: #008000; stroke-width: 1.5"/>
    <path d="M 322.097968 62.684006 
L 322.097968 60.189513 
" clip-path="url(#padc0b52999)" style="fill: none; stroke: #008000; stroke-width: 1.5"/>
    <path d="M 324.826157 62.703303 
L 324.826157 60.198532 
" clip-path="url(#padc0b52999)" style="fill: none; stroke: #008000; stroke-width: 1.5"/>
    <path d="M 327.554347 61.996708 
L 327.554347 59.640056 
" clip-path="url(#padc0b52999)" style="fill: none; stroke: #008000; stroke-width: 1.5"/>
    <path d="M 330.282536 61.510391 
L 330.282536 59.346323 
" clip-path="url(#padc0b52999)" style="fill: none; stroke: #008000; stroke-width: 1.5"/>
    <path d="M 333.010726 61.606039 
L 333.010726 59.092655 
" clip-path="url(#padc0b52999)" style="fill: none; stroke: #008000; stroke-width: 1.5"/>
    <path d="M 335.738915 61.182266 
L 335.738915 58.633163 
" clip-path="url(#padc0b52999)" style="fill: none; stroke: #008000; stroke-width: 1.5"/>
    <path d="M 338.467105 60.123419 
L 338.467105 58.124601 
" clip-path="url(#padc0b52999)" style="fill: none; stroke: #008000; stroke-width: 1.5"/>
    <path d="M 341.195294 60.359064 
L 341.195294 58.01592 
" clip-path="url(#padc0b52999)" style="fill: none; stroke: #008000; stroke-width: 1.5"/>
    <path d="M 357.564431 58.191609 
L 357.564431 56.53431 
" clip-path="url(#padc0b52999)" style="fill: none; stroke: #008000; stroke-width: 1.5"/>
    <path d="M 360.29262 58.025664 
L 360.29262 56.005151 
" clip-path="url(#padc0b52999)" style="fill: none; stroke: #008000; stroke-width: 1.5"/>
    <path d="M 363.02081 57.610985 
L 363.02081 55.856257 
" clip-path="url(#padc0b52999)" style="fill: none; stroke: #008000; stroke-width: 1.5"/>
    <path d="M 368.477189 57.1704 
L 368.477189 55.484822 
" clip-path="url(#padc0b52999)" style="fill: none; stroke: #008000; stroke-width: 1.5"/>
    <path d="M 371.205378 57.178306 
L 371.205378 55.263178 
" clip-path="url(#padc0b52999)" style="fill: none; stroke: #008000; stroke-width: 1.5"/>
    <path d="M 373.933568 56.882682 
L 373.933568 55.094791 
" clip-path="url(#padc0b52999)" style="fill: none; stroke: #008000; stroke-width: 1.5"/>
    <path d="M 379.389947 56.299669 
L 379.389947 54.723292 
" clip-path="url(#padc0b52999)" style="fill: none; stroke: #008000; stroke-width: 1.5"/>
    <path d="M 382.118136 55.928062 
L 382.118136 54.477435 
" clip-path="url(#padc0b52999)" style="fill: none; stroke: #008000; stroke-width: 1.5"/>
    <path d="M 387.574515 55.687733 
L 387.574515 54.018094 
" clip-path="url(#padc0b52999)" style="fill: none; stroke: #008000; stroke-width: 1.5"/>
    <path d="M 390.302704 55.605416 
L 390.302704 54.166176 
" clip-path="url(#padc0b52999)" style="fill: none; stroke: #008000; stroke-width: 1.5"/>
    <path d="M 395.759083 55.026169 
L 395.759083 53.69683 
" clip-path="url(#padc0b52999)" style="fill: none; stroke: #008000; stroke-width: 1.5"/>
    <path d="M 398.487273 55.137645 
L 398.487273 53.568 
" clip-path="url(#padc0b52999)" style="fill: none; stroke: #008000; stroke-width: 1.5"/>
   </g>
   <g id="line2d_14">
    <path d="M 73.832727 274.573888 
L 77.112066 274.573875 
L 80.391405 274.573857 
L 83.670744 274.573832 
L 86.950083 274.573797 
L 90.229421 274.573747 
L 93.50876 274.573678 
L 96.788099 274.57358 
L 100.067438 274.573444 
L 103.346777 274.573252 
L 106.626116 274.572984 
L 109.905455 274.572608 
L 113.184793 274.57208 
L 116.464132 274.57134 
L 119.743471 274.570302 
L 123.02281 274.568847 
L 126.302149 274.566808 
L 129.581488 274.563948 
L 132.860826 274.559938 
L 136.140165 274.554316 
L 139.419504 274.546433 
L 142.698843 274.535382 
L 145.978182 274.519889 
L 149.257521 274.498169 
L 152.53686 274.467723 
L 155.816198 274.425049 
L 159.095537 274.365243 
L 162.374876 274.281445 
L 165.654215 274.164061 
L 168.933554 273.999693 
L 172.212893 273.769657 
L 175.492231 273.447961 
L 178.77157 272.998548 
L 182.050909 272.371631 
L 185.330248 271.498877 
L 188.609587 270.287321 
L 191.888926 268.612035 
L 195.168264 266.308061 
L 198.447603 263.163011 
L 201.726942 258.913268 
L 205.006281 253.249011 
L 208.28562 245.835837 
L 211.564959 236.361905 
L 214.844298 224.615871 
L 218.123636 210.588112 
L 221.402975 194.56557 
L 224.682314 177.170055 
L 227.961653 159.294133 
L 231.240992 141.932769 
L 234.520331 125.971399 
L 237.799669 112.020531 
L 241.079008 100.3556 
L 244.358347 90.958163 
L 247.637686 83.611734 
L 250.917025 78.002547 
L 254.196364 73.796435 
L 257.475702 70.68495 
L 260.755041 68.406254 
L 264.03438 66.749713 
L 267.313719 65.551905 
L 270.593058 64.689155 
L 273.872397 64.069475 
L 277.151736 63.625277 
L 280.431074 63.307326 
L 283.710413 63.079977 
L 286.989752 62.917531 
L 290.269091 62.801522 
L 293.54843 62.718706 
L 296.827769 62.659602 
L 300.107107 62.617428 
L 303.386446 62.58734 
L 306.665785 62.565875 
L 309.945124 62.550564 
L 313.224463 62.539643 
L 316.503802 62.531853 
L 319.78314 62.526297 
L 323.062479 62.522334 
L 326.341818 62.519508 
L 329.621157 62.517492 
L 332.900496 62.516054 
L 336.179835 62.515029 
L 339.459174 62.514297 
L 342.738512 62.513776 
L 346.017851 62.513404 
L 349.29719 62.513139 
L 352.576529 62.512949 
L 355.855868 62.512814 
L 359.135207 62.512718 
L 362.414545 62.51265 
L 365.693884 62.512601 
L 368.973223 62.512566 
L 372.252562 62.512541 
L 375.531901 62.512523 
L 378.81124 62.51251 
L 382.090579 62.512501 
L 385.369917 62.512495 
L 388.649256 62.51249 
L 391.928595 62.512487 
L 395.207934 62.512485 
L 398.487273 62.512483 
" clip-path="url(#padc0b52999)" style="fill: none; stroke: #0000ff; stroke-width: 1.5; stroke-linecap: square"/>
   </g>
   <g id="line2d_15">
    <path d="M 226.420364 307.584 
L 226.420364 41.472 
" clip-path="url(#padc0b52999)" style="fill: none; stroke-dasharray: 5.55,2.4; stroke-dashoffset: 0; stroke: #000000; stroke-width: 1.5"/>
   </g>
   <g id="line2d_16">
    <path d="M 227.961653 137.020339 
L 231.240992 118.631024 
L 234.520331 109.009736 
L 237.799669 102.398799 
L 241.079008 97.35902 
L 244.358347 93.295025 
L 247.637686 89.899798 
L 250.917025 86.993187 
L 254.196364 84.459997 
L 257.475702 82.221882 
L 260.755041 80.223026 
L 264.03438 78.422186 
L 267.313719 76.787988 
L 270.593058 75.295982 
L 273.872397 73.926728 
L 277.151736 72.664504 
L 280.431074 71.496406 
L 283.710413 70.411709 
L 286.989752 69.401396 
L 290.269091 68.457814 
L 293.54843 67.574409 
L 296.827769 66.745522 
L 300.107107 65.966238 
L 303.386446 65.232252 
L 306.665785 64.53978 
L 309.945124 63.885473 
L 313.224463 63.266353 
L 316.503802 62.679763 
L 319.78314 62.123318 
L 323.062479 61.594875 
L 326.341818 61.092496 
L 329.621157 60.614424 
L 332.900496 60.159064 
L 336.179835 59.724961 
L 339.459174 59.310785 
L 342.738512 58.915319 
L 346.017851 58.537443 
L 349.29719 58.176126 
L 352.576529 57.830419 
L 355.855868 57.499443 
L 359.135207 57.182385 
L 362.414545 56.878491 
L 365.693884 56.58706 
L 368.973223 56.307439 
L 372.252562 56.039021 
L 375.531901 55.781237 
L 378.81124 55.533557 
L 382.090579 55.295486 
L 385.369917 55.066557 
L 388.649256 54.846335 
L 391.928595 54.634409 
L 395.207934 54.430394 
L 398.487273 54.233927 
" clip-path="url(#padc0b52999)" style="fill: none; stroke: #ff0000; stroke-width: 1.5; stroke-linecap: square"/>
   </g>
   <g id="line2d_17">
    <defs>
     <path id="m0bfe599dd5" d="M -3 3 
L 3 -3 
M -3 -3 
L 3 3 
" style="stroke: #008000"/>
    </defs>
    <g clip-path="url(#padc0b52999)">
     <use xlink:href="#m0bfe599dd5" x="73.832727" y="276.389114" style="fill: #008000; stroke: #008000"/>
     <use xlink:href="#m0bfe599dd5" x="76.560917" y="275.509046" style="fill: #008000; stroke: #008000"/>
     <use xlink:href="#m0bfe599dd5" x="79.289106" y="274.547683" style="fill: #008000; stroke: #008000"/>
     <use xlink:href="#m0bfe599dd5" x="82.017296" y="276.391398" style="fill: #008000; stroke: #008000"/>
     <use xlink:href="#m0bfe599dd5" x="84.745485" y="275.962096" style="fill: #008000; stroke: #008000"/>
     <use xlink:href="#m0bfe599dd5" x="87.473675" y="275.679396" style="fill: #008000; stroke: #008000"/>
     <use xlink:href="#m0bfe599dd5" x="90.201864" y="276.511968" style="fill: #008000; stroke: #008000"/>
     <use xlink:href="#m0bfe599dd5" x="92.930053" y="276.369933" style="fill: #008000; stroke: #008000"/>
     <use xlink:href="#m0bfe599dd5" x="95.658243" y="273.688166" style="fill: #008000; stroke: #008000"/>
     <use xlink:href="#m0bfe599dd5" x="98.386432" y="274.697939" style="fill: #008000; stroke: #008000"/>
     <use xlink:href="#m0bfe599dd5" x="101.114622" y="276.390484" style="fill: #008000; stroke: #008000"/>
     <use xlink:href="#m0bfe599dd5" x="103.842811" y="275.090705" style="fill: #008000; stroke: #008000"/>
     <use xlink:href="#m0bfe599dd5" x="106.571001" y="276.213283" style="fill: #008000; stroke: #008000"/>
     <use xlink:href="#m0bfe599dd5" x="109.29919" y="273.713742" style="fill: #008000; stroke: #008000"/>
     <use xlink:href="#m0bfe599dd5" x="112.02738" y="276.347554" style="fill: #008000; stroke: #008000"/>
     <use xlink:href="#m0bfe599dd5" x="114.755569" y="276.180857" style="fill: #008000; stroke: #008000"/>
     <use xlink:href="#m0bfe599dd5" x="117.483759" y="276.035169" style="fill: #008000; stroke: #008000"/>
     <use xlink:href="#m0bfe599dd5" x="120.211948" y="272.942825" style="fill: #008000; stroke: #008000"/>
     <use xlink:href="#m0bfe599dd5" x="122.940138" y="271.490506" style="fill: #008000; stroke: #008000"/>
     <use xlink:href="#m0bfe599dd5" x="125.668327" y="273.417797" style="fill: #008000; stroke: #008000"/>
     <use xlink:href="#m0bfe599dd5" x="128.396516" y="275.595363" style="fill: #008000; stroke: #008000"/>
     <use xlink:href="#m0bfe599dd5" x="131.124706" y="274.601118" style="fill: #008000; stroke: #008000"/>
     <use xlink:href="#m0bfe599dd5" x="133.852895" y="272.47105" style="fill: #008000; stroke: #008000"/>
     <use xlink:href="#m0bfe599dd5" x="136.581085" y="276.223787" style="fill: #008000; stroke: #008000"/>
     <use xlink:href="#m0bfe599dd5" x="139.309274" y="273.014528" style="fill: #008000; stroke: #008000"/>
     <use xlink:href="#m0bfe599dd5" x="142.037464" y="274.243518" style="fill: #008000; stroke: #008000"/>
     <use xlink:href="#m0bfe599dd5" x="144.765653" y="273.387198" style="fill: #008000; stroke: #008000"/>
     <use xlink:href="#m0bfe599dd5" x="147.493843" y="271.874138" style="fill: #008000; stroke: #008000"/>
     <use xlink:href="#m0bfe599dd5" x="150.222032" y="272.408481" style="fill: #008000; stroke: #008000"/>
     <use xlink:href="#m0bfe599dd5" x="152.950222" y="276.111438" style="fill: #008000; stroke: #008000"/>
     <use xlink:href="#m0bfe599dd5" x="155.678411" y="274.829013" style="fill: #008000; stroke: #008000"/>
     <use xlink:href="#m0bfe599dd5" x="158.4066" y="274.246715" style="fill: #008000; stroke: #008000"/>
     <use xlink:href="#m0bfe599dd5" x="161.13479" y="270.108519" style="fill: #008000; stroke: #008000"/>
     <use xlink:href="#m0bfe599dd5" x="163.862979" y="274.666426" style="fill: #008000; stroke: #008000"/>
     <use xlink:href="#m0bfe599dd5" x="166.591169" y="273.98274" style="fill: #008000; stroke: #008000"/>
     <use xlink:href="#m0bfe599dd5" x="169.319358" y="272.540012" style="fill: #008000; stroke: #008000"/>
     <use xlink:href="#m0bfe599dd5" x="172.047548" y="272.094726" style="fill: #008000; stroke: #008000"/>
     <use xlink:href="#m0bfe599dd5" x="174.775737" y="267.067327" style="fill: #008000; stroke: #008000"/>
     <use xlink:href="#m0bfe599dd5" x="177.503927" y="272.575635" style="fill: #008000; stroke: #008000"/>
     <use xlink:href="#m0bfe599dd5" x="180.232116" y="271.858153" style="fill: #008000; stroke: #008000"/>
     <use xlink:href="#m0bfe599dd5" x="182.960306" y="272.796223" style="fill: #008000; stroke: #008000"/>
     <use xlink:href="#m0bfe599dd5" x="185.688495" y="254.745907" style="fill: #008000; stroke: #008000"/>
     <use xlink:href="#m0bfe599dd5" x="188.416684" y="263.930226" style="fill: #008000; stroke: #008000"/>
     <use xlink:href="#m0bfe599dd5" x="191.144874" y="258.972703" style="fill: #008000; stroke: #008000"/>
     <use xlink:href="#m0bfe599dd5" x="193.873063" y="273.027772" style="fill: #008000; stroke: #008000"/>
     <use xlink:href="#m0bfe599dd5" x="196.601253" y="275.206251" style="fill: #008000; stroke: #008000"/>
     <use xlink:href="#m0bfe599dd5" x="199.329442" y="274.38053" style="fill: #008000; stroke: #008000"/>
     <use xlink:href="#m0bfe599dd5" x="202.057632" y="272.075544" style="fill: #008000; stroke: #008000"/>
     <use xlink:href="#m0bfe599dd5" x="204.785821" y="241.839905" style="fill: #008000; stroke: #008000"/>
     <use xlink:href="#m0bfe599dd5" x="207.514011" y="266.322442" style="fill: #008000; stroke: #008000"/>
     <use xlink:href="#m0bfe599dd5" x="210.2422" y="267.765171" style="fill: #008000; stroke: #008000"/>
     <use xlink:href="#m0bfe599dd5" x="212.97039" y="230.973545" style="fill: #008000; stroke: #008000"/>
     <use xlink:href="#m0bfe599dd5" x="215.698579" y="198.082628" style="fill: #008000; stroke: #008000"/>
     <use xlink:href="#m0bfe599dd5" x="218.426769" y="147.757033" style="fill: #008000; stroke: #008000"/>
     <use xlink:href="#m0bfe599dd5" x="221.154958" y="257.690278" style="fill: #008000; stroke: #008000"/>
     <use xlink:href="#m0bfe599dd5" x="223.883147" y="177.570677" style="fill: #008000; stroke: #008000"/>
     <use xlink:href="#m0bfe599dd5" x="226.611337" y="126.839985" style="fill: #008000; stroke: #008000"/>
     <use xlink:href="#m0bfe599dd5" x="229.339526" y="225.889971" style="fill: #008000; stroke: #008000"/>
     <use xlink:href="#m0bfe599dd5" x="232.067716" y="110.501395" style="fill: #008000; stroke: #008000"/>
     <use xlink:href="#m0bfe599dd5" x="234.795905" y="101.881105" style="fill: #008000; stroke: #008000"/>
     <use xlink:href="#m0bfe599dd5" x="237.524095" y="108.026516" style="fill: #008000; stroke: #008000"/>
     <use xlink:href="#m0bfe599dd5" x="240.252284" y="94.967062" style="fill: #008000; stroke: #008000"/>
     <use xlink:href="#m0bfe599dd5" x="242.980474" y="90.480401" style="fill: #008000; stroke: #008000"/>
     <use xlink:href="#m0bfe599dd5" x="245.708663" y="98.354436" style="fill: #008000; stroke: #008000"/>
     <use xlink:href="#m0bfe599dd5" x="248.436853" y="89.322656" style="fill: #008000; stroke: #008000"/>
     <use xlink:href="#m0bfe599dd5" x="251.165042" y="84.579784" style="fill: #008000; stroke: #008000"/>
     <use xlink:href="#m0bfe599dd5" x="253.893231" y="81.643633" style="fill: #008000; stroke: #008000"/>
     <use xlink:href="#m0bfe599dd5" x="262.0778" y="79.761099" style="fill: #008000; stroke: #008000"/>
     <use xlink:href="#m0bfe599dd5" x="264.805989" y="77.289416" style="fill: #008000; stroke: #008000"/>
     <use xlink:href="#m0bfe599dd5" x="270.262368" y="75.684558" style="fill: #008000; stroke: #008000"/>
     <use xlink:href="#m0bfe599dd5" x="272.990558" y="75.378109" style="fill: #008000; stroke: #008000"/>
     <use xlink:href="#m0bfe599dd5" x="275.718747" y="72.810975" style="fill: #008000; stroke: #008000"/>
     <use xlink:href="#m0bfe599dd5" x="278.446937" y="73.052572" style="fill: #008000; stroke: #008000"/>
     <use xlink:href="#m0bfe599dd5" x="283.903316" y="70.26622" style="fill: #008000; stroke: #008000"/>
     <use xlink:href="#m0bfe599dd5" x="286.631505" y="69.00663" style="fill: #008000; stroke: #008000"/>
     <use xlink:href="#m0bfe599dd5" x="292.087884" y="67.852082" style="fill: #008000; stroke: #008000"/>
     <use xlink:href="#m0bfe599dd5" x="297.544263" y="66.393826" style="fill: #008000; stroke: #008000"/>
     <use xlink:href="#m0bfe599dd5" x="303.000642" y="65.346147" style="fill: #008000; stroke: #008000"/>
     <use xlink:href="#m0bfe599dd5" x="305.728831" y="64.823677" style="fill: #008000; stroke: #008000"/>
     <use xlink:href="#m0bfe599dd5" x="311.18521" y="63.899308" style="fill: #008000; stroke: #008000"/>
     <use xlink:href="#m0bfe599dd5" x="316.641589" y="62.251977" style="fill: #008000; stroke: #008000"/>
     <use xlink:href="#m0bfe599dd5" x="319.369778" y="62.306781" style="fill: #008000; stroke: #008000"/>
     <use xlink:href="#m0bfe599dd5" x="322.097968" y="61.43676" style="fill: #008000; stroke: #008000"/>
     <use xlink:href="#m0bfe599dd5" x="324.826157" y="61.450918" style="fill: #008000; stroke: #008000"/>
     <use xlink:href="#m0bfe599dd5" x="327.554347" y="60.818382" style="fill: #008000; stroke: #008000"/>
     <use xlink:href="#m0bfe599dd5" x="330.282536" y="60.428357" style="fill: #008000; stroke: #008000"/>
     <use xlink:href="#m0bfe599dd5" x="333.010726" y="60.349347" style="fill: #008000; stroke: #008000"/>
     <use xlink:href="#m0bfe599dd5" x="335.738915" y="59.907714" style="fill: #008000; stroke: #008000"/>
     <use xlink:href="#m0bfe599dd5" x="338.467105" y="59.12401" style="fill: #008000; stroke: #008000"/>
     <use xlink:href="#m0bfe599dd5" x="341.195294" y="59.187492" style="fill: #008000; stroke: #008000"/>
     <use xlink:href="#m0bfe599dd5" x="357.564431" y="57.362959" style="fill: #008000; stroke: #008000"/>
     <use xlink:href="#m0bfe599dd5" x="360.29262" y="57.015407" style="fill: #008000; stroke: #008000"/>
     <use xlink:href="#m0bfe599dd5" x="363.02081" y="56.733621" style="fill: #008000; stroke: #008000"/>
     <use xlink:href="#m0bfe599dd5" x="368.477189" y="56.327611" style="fill: #008000; stroke: #008000"/>
     <use xlink:href="#m0bfe599dd5" x="371.205378" y="56.220742" style="fill: #008000; stroke: #008000"/>
     <use xlink:href="#m0bfe599dd5" x="373.933568" y="55.988736" style="fill: #008000; stroke: #008000"/>
     <use xlink:href="#m0bfe599dd5" x="379.389947" y="55.511481" style="fill: #008000; stroke: #008000"/>
     <use xlink:href="#m0bfe599dd5" x="382.118136" y="55.202749" style="fill: #008000; stroke: #008000"/>
     <use xlink:href="#m0bfe599dd5" x="387.574515" y="54.852913" style="fill: #008000; stroke: #008000"/>
     <use xlink:href="#m0bfe599dd5" x="390.302704" y="54.885796" style="fill: #008000; stroke: #008000"/>
     <use xlink:href="#m0bfe599dd5" x="395.759083" y="54.3615" style="fill: #008000; stroke: #008000"/>
     <use xlink:href="#m0bfe599dd5" x="398.487273" y="54.352822" style="fill: #008000; stroke: #008000"/>
    </g>
   </g>
   <g id="patch_3">
    <path d="M 57.6 307.584 
L 57.6 41.472 
" style="fill: none; stroke: #000000; stroke-width: 0.8; stroke-linejoin: miter; stroke-linecap: square"/>
   </g>
   <g id="patch_4">
    <path d="M 414.72 307.584 
L 414.72 41.472 
" style="fill: none; stroke: #000000; stroke-width: 0.8; stroke-linejoin: miter; stroke-linecap: square"/>
   </g>
   <g id="patch_5">
    <path d="M 57.6 307.584 
L 414.72 307.584 
" style="fill: none; stroke: #000000; stroke-width: 0.8; stroke-linejoin: miter; stroke-linecap: square"/>
   </g>
   <g id="patch_6">
    <path d="M 57.6 41.472 
L 414.72 41.472 
" style="fill: none; stroke: #000000; stroke-width: 0.8; stroke-linejoin: miter; stroke-linecap: square"/>
   </g>
   <g id="text_16">
    <g id="patch_7">
     <path d="M 302.435875 299.2784 
L 396.864 299.2784 
Q 401.864 299.2784 401.864 294.2784 
L 401.864 251.006837 
Q 401.864 246.006837 396.864 246.006837 
L 302.435875 246.006837 
Q 297.435875 246.006837 297.435875 251.006837 
L 297.435875 294.2784 
Q 297.435875 299.2784 302.435875 299.2784 
z
" style="fill: #ffffff; stroke: #000000; stroke-linejoin: miter"/>
    </g>
    <!-- A = 0.47  0.01 -->
    <g transform="translate(316.02025 258.605275) scale(0.1 -0.1)">
     <defs>
      <path id="DejaVuSans-3d" d="M 678 2906 
L 4684 2906 
L 4684 2381 
L 678 2381 
L 678 2906 
z
M 678 1631 
L 4684 1631 
L 4684 1100 
L 678 1100 
L 678 1631 
z
" transform="scale(0.015625)"/>
      <path id="DejaVuSans-37" d="M 525 4666 
L 3525 4666 
L 3525 4397 
L 1831 0 
L 1172 0 
L 2766 4134 
L 525 4134 
L 525 4666 
z
" transform="scale(0.015625)"/>
      <path id="DejaVuSans-b1" d="M 2944 4013 
L 2944 2803 
L 4684 2803 
L 4684 2272 
L 2944 2272 
L 2944 1063 
L 2419 1063 
L 2419 2272 
L 678 2272 
L 678 2803 
L 2419 2803 
L 2419 4013 
L 2944 4013 
z
M 678 531 
L 4684 531 
L 4684 0 
L 678 0 
L 678 531 
z
" transform="scale(0.015625)"/>
     </defs>
     <use xlink:href="#DejaVuSans-41"/>
     <use xlink:href="#DejaVuSans-20" x="68.408203"/>
     <use xlink:href="#DejaVuSans-3d" x="100.195312"/>
     <use xlink:href="#DejaVuSans-20" x="183.984375"/>
     <use xlink:href="#DejaVuSans-30" x="215.771484"/>
     <use xlink:href="#DejaVuSans-2e" x="279.394531"/>
     <use xlink:href="#DejaVuSans-34" x="311.181641"/>
     <use xlink:href="#DejaVuSans-37" x="374.804688"/>
     <use xlink:href="#DejaVuSans-20" x="438.427734"/>
     <use xlink:href="#DejaVuSans-b1" x="470.214844"/>
     <use xlink:href="#DejaVuSans-20" x="554.003906"/>
     <use xlink:href="#DejaVuSans-30" x="585.791016"/>
     <use xlink:href="#DejaVuSans-2e" x="649.414062"/>
     <use xlink:href="#DejaVuSans-30" x="681.201172"/>
     <use xlink:href="#DejaVuSans-31" x="744.824219"/>
    </g>
    <!-- B = 0.46  0.01 -->
    <g transform="translate(315.999938 269.803087) scale(0.1 -0.1)">
     <defs>
      <path id="DejaVuSans-42" d="M 1259 2228 
L 1259 519 
L 2272 519 
Q 2781 519 3026 730 
Q 3272 941 3272 1375 
Q 3272 1813 3026 2020 
Q 2781 2228 2272 2228 
L 1259 2228 
z
M 1259 4147 
L 1259 2741 
L 2194 2741 
Q 2656 2741 2882 2914 
Q 3109 3088 3109 3444 
Q 3109 3797 2882 3972 
Q 2656 4147 2194 4147 
L 1259 4147 
z
M 628 4666 
L 2241 4666 
Q 2963 4666 3353 4366 
Q 3744 4066 3744 3513 
Q 3744 3084 3544 2831 
Q 3344 2578 2956 2516 
Q 3422 2416 3680 2098 
Q 3938 1781 3938 1306 
Q 3938 681 3513 340 
Q 3088 0 2303 0 
L 628 0 
L 628 4666 
z
" transform="scale(0.015625)"/>
     </defs>
     <use xlink:href="#DejaVuSans-42"/>
     <use xlink:href="#DejaVuSans-20" x="68.603516"/>
     <use xlink:href="#DejaVuSans-3d" x="100.390625"/>
     <use xlink:href="#DejaVuSans-20" x="184.179688"/>
     <use xlink:href="#DejaVuSans-30" x="215.966797"/>
     <use xlink:href="#DejaVuSans-2e" x="279.589844"/>
     <use xlink:href="#DejaVuSans-34" x="311.376953"/>
     <use xlink:href="#DejaVuSans-36" x="375"/>
     <use xlink:href="#DejaVuSans-20" x="438.623047"/>
     <use xlink:href="#DejaVuSans-b1" x="470.410156"/>
     <use xlink:href="#DejaVuSans-20" x="554.199219"/>
     <use xlink:href="#DejaVuSans-30" x="585.986328"/>
     <use xlink:href="#DejaVuSans-2e" x="649.609375"/>
     <use xlink:href="#DejaVuSans-30" x="681.396484"/>
     <use xlink:href="#DejaVuSans-31" x="745.019531"/>
    </g>
    <!-- C=55.77  4.86 -->
    <g transform="translate(315.871813 281.0009) scale(0.1 -0.1)">
     <defs>
      <path id="DejaVuSans-43" d="M 4122 4306 
L 4122 3641 
Q 3803 3938 3442 4084 
Q 3081 4231 2675 4231 
Q 1875 4231 1450 3742 
Q 1025 3253 1025 2328 
Q 1025 1406 1450 917 
Q 1875 428 2675 428 
Q 3081 428 3442 575 
Q 3803 722 4122 1019 
L 4122 359 
Q 3791 134 3420 21 
Q 3050 -91 2638 -91 
Q 1578 -91 968 557 
Q 359 1206 359 2328 
Q 359 3453 968 4101 
Q 1578 4750 2638 4750 
Q 3056 4750 3426 4639 
Q 3797 4528 4122 4306 
z
" transform="scale(0.015625)"/>
     </defs>
     <use xlink:href="#DejaVuSans-43"/>
     <use xlink:href="#DejaVuSans-3d" x="69.824219"/>
     <use xlink:href="#DejaVuSans-35" x="153.613281"/>
     <use xlink:href="#DejaVuSans-35" x="217.236328"/>
     <use xlink:href="#DejaVuSans-2e" x="280.859375"/>
     <use xlink:href="#DejaVuSans-37" x="312.646484"/>
     <use xlink:href="#DejaVuSans-37" x="376.269531"/>
     <use xlink:href="#DejaVuSans-20" x="439.892578"/>
     <use xlink:href="#DejaVuSans-b1" x="471.679688"/>
     <use xlink:href="#DejaVuSans-20" x="555.46875"/>
     <use xlink:href="#DejaVuSans-34" x="587.255859"/>
     <use xlink:href="#DejaVuSans-2e" x="650.878906"/>
     <use xlink:href="#DejaVuSans-38" x="682.666016"/>
     <use xlink:href="#DejaVuSans-36" x="746.289062"/>
    </g>
    <!-- D = 0.441  0.001 -->
    <g transform="translate(302.435875 292.198712) scale(0.1 -0.1)">
     <defs>
      <path id="DejaVuSans-44" d="M 1259 4147 
L 1259 519 
L 2022 519 
Q 2988 519 3436 956 
Q 3884 1394 3884 2338 
Q 3884 3275 3436 3711 
Q 2988 4147 2022 4147 
L 1259 4147 
z
M 628 4666 
L 1925 4666 
Q 3281 4666 3915 4102 
Q 4550 3538 4550 2338 
Q 4550 1131 3912 565 
Q 3275 0 1925 0 
L 628 0 
L 628 4666 
z
" transform="scale(0.015625)"/>
     </defs>
     <use xlink:href="#DejaVuSans-44"/>
     <use xlink:href="#DejaVuSans-20" x="77.001953"/>
     <use xlink:href="#DejaVuSans-3d" x="108.789062"/>
     <use xlink:href="#DejaVuSans-20" x="192.578125"/>
     <use xlink:href="#DejaVuSans-30" x="224.365234"/>
     <use xlink:href="#DejaVuSans-2e" x="287.988281"/>
     <use xlink:href="#DejaVuSans-34" x="319.775391"/>
     <use xlink:href="#DejaVuSans-34" x="383.398438"/>
     <use xlink:href="#DejaVuSans-31" x="447.021484"/>
     <use xlink:href="#DejaVuSans-20" x="510.644531"/>
     <use xlink:href="#DejaVuSans-b1" x="542.431641"/>
     <use xlink:href="#DejaVuSans-20" x="626.220703"/>
     <use xlink:href="#DejaVuSans-30" x="658.007812"/>
     <use xlink:href="#DejaVuSans-2e" x="721.630859"/>
     <use xlink:href="#DejaVuSans-30" x="753.417969"/>
     <use xlink:href="#DejaVuSans-30" x="817.041016"/>
     <use xlink:href="#DejaVuSans-31" x="880.664062"/>
    </g>
   </g>
   <g id="legend_1">
    <g id="patch_8">
     <path d="M 64.6 93.526688 
L 208.7 93.526688 
Q 210.7 93.526688 210.7 91.526688 
L 210.7 48.472 
Q 210.7 46.472 208.7 46.472 
L 64.6 46.472 
Q 62.6 46.472 62.6 48.472 
L 62.6 91.526688 
Q 62.6 93.526688 64.6 93.526688 
z
" style="fill: #ffffff; opacity: 0.8; stroke: #cccccc; stroke-linejoin: miter"/>
    </g>
    <g id="line2d_18">
     <path d="M 66.6 54.570438 
L 76.6 54.570438 
L 86.6 54.570438 
" style="fill: none; stroke: #0000ff; stroke-width: 1.5; stroke-linecap: square"/>
    </g>
    <g id="text_17">
     <!-- $A + B \tanh(C (x - D))$ -->
     <g transform="translate(94.6 58.070438) scale(0.1 -0.1)">
      <defs>
       <path id="DejaVuSans-Oblique-41" d="M 2356 4666 
L 3072 4666 
L 3938 0 
L 3278 0 
L 3084 1197 
L 984 1197 
L 325 0 
L -341 0 
L 2356 4666 
z
M 2584 4044 
L 1275 1722 
L 2988 1722 
L 2584 4044 
z
" transform="scale(0.015625)"/>
       <path id="DejaVuSans-2b" d="M 2944 4013 
L 2944 2272 
L 4684 2272 
L 4684 1741 
L 2944 1741 
L 2944 0 
L 2419 0 
L 2419 1741 
L 678 1741 
L 678 2272 
L 2419 2272 
L 2419 4013 
L 2944 4013 
z
" transform="scale(0.015625)"/>
       <path id="DejaVuSans-Oblique-42" d="M 1081 4666 
L 2694 4666 
Q 3350 4666 3675 4422 
Q 4000 4178 4000 3688 
Q 4000 3238 3720 2911 
Q 3441 2584 2988 2516 
Q 3375 2428 3569 2181 
Q 3763 1934 3763 1522 
Q 3763 819 3242 409 
Q 2722 0 1819 0 
L 172 0 
L 1081 4666 
z
M 1234 2228 
L 903 519 
L 1919 519 
Q 2491 519 2800 781 
Q 3109 1044 3109 1522 
Q 3109 1891 2904 2059 
Q 2700 2228 2247 2228 
L 1234 2228 
z
M 1606 4147 
L 1331 2741 
L 2272 2741 
Q 2775 2741 3058 2959 
Q 3341 3178 3341 3566 
Q 3341 3869 3150 4008 
Q 2959 4147 2541 4147 
L 1606 4147 
z
" transform="scale(0.015625)"/>
       <path id="DejaVuSans-74" d="M 1172 4494 
L 1172 3500 
L 2356 3500 
L 2356 3053 
L 1172 3053 
L 1172 1153 
Q 1172 725 1289 603 
Q 1406 481 1766 481 
L 2356 481 
L 2356 0 
L 1766 0 
Q 1100 0 847 248 
Q 594 497 594 1153 
L 594 3053 
L 172 3053 
L 172 3500 
L 594 3500 
L 594 4494 
L 1172 4494 
z
" transform="scale(0.015625)"/>
       <path id="DejaVuSans-6e" d="M 3513 2113 
L 3513 0 
L 2938 0 
L 2938 2094 
Q 2938 2591 2744 2837 
Q 2550 3084 2163 3084 
Q 1697 3084 1428 2787 
Q 1159 2491 1159 1978 
L 1159 0 
L 581 0 
L 581 3500 
L 1159 3500 
L 1159 2956 
Q 1366 3272 1645 3428 
Q 1925 3584 2291 3584 
Q 2894 3584 3203 3211 
Q 3513 2838 3513 2113 
z
" transform="scale(0.015625)"/>
       <path id="DejaVuSans-68" d="M 3513 2113 
L 3513 0 
L 2938 0 
L 2938 2094 
Q 2938 2591 2744 2837 
Q 2550 3084 2163 3084 
Q 1697 3084 1428 2787 
Q 1159 2491 1159 1978 
L 1159 0 
L 581 0 
L 581 4863 
L 1159 4863 
L 1159 2956 
Q 1366 3272 1645 3428 
Q 1925 3584 2291 3584 
Q 2894 3584 3203 3211 
Q 3513 2838 3513 2113 
z
" transform="scale(0.015625)"/>
       <path id="DejaVuSans-28" d="M 1984 4856 
Q 1566 4138 1362 3434 
Q 1159 2731 1159 2009 
Q 1159 1288 1364 580 
Q 1569 -128 1984 -844 
L 1484 -844 
Q 1016 -109 783 600 
Q 550 1309 550 2009 
Q 550 2706 781 3412 
Q 1013 4119 1484 4856 
L 1984 4856 
z
" transform="scale(0.015625)"/>
       <path id="DejaVuSans-Oblique-43" d="M 4447 4306 
L 4319 3641 
Q 4019 3944 3683 4091 
Q 3347 4238 2956 4238 
Q 2422 4238 2017 3981 
Q 1613 3725 1319 3200 
Q 1131 2863 1032 2486 
Q 934 2109 934 1728 
Q 934 1091 1264 756 
Q 1594 422 2222 422 
Q 2656 422 3056 561 
Q 3456 700 3834 978 
L 3688 231 
Q 3316 72 2936 -9 
Q 2556 -91 2175 -91 
Q 1278 -91 773 396 
Q 269 884 269 1753 
Q 269 2309 461 2846 
Q 653 3384 1013 3828 
Q 1394 4300 1883 4525 
Q 2372 4750 3022 4750 
Q 3422 4750 3780 4639 
Q 4138 4528 4447 4306 
z
" transform="scale(0.015625)"/>
       <path id="DejaVuSans-Oblique-78" d="M 3841 3500 
L 2234 1784 
L 3219 0 
L 2559 0 
L 1819 1388 
L 531 0 
L -166 0 
L 1556 1844 
L 641 3500 
L 1300 3500 
L 1972 2234 
L 3144 3500 
L 3841 3500 
z
" transform="scale(0.015625)"/>
       <path id="DejaVuSans-2212" d="M 678 2272 
L 4684 2272 
L 4684 1741 
L 678 1741 
L 678 2272 
z
" transform="scale(0.015625)"/>
       <path id="DejaVuSans-Oblique-44" d="M 1081 4666 
L 2438 4666 
Q 3519 4666 4070 4208 
Q 4622 3750 4622 2847 
Q 4622 2250 4412 1698 
Q 4203 1147 3834 769 
Q 3463 381 2891 190 
Q 2319 0 1538 0 
L 172 0 
L 1081 4666 
z
M 1613 4147 
L 909 519 
L 1734 519 
Q 2794 519 3375 1128 
Q 3956 1738 3956 2847 
Q 3956 3519 3581 3833 
Q 3206 4147 2406 4147 
L 1613 4147 
z
" transform="scale(0.015625)"/>
       <path id="DejaVuSans-29" d="M 513 4856 
L 1013 4856 
Q 1481 4119 1714 3412 
Q 1947 2706 1947 2009 
Q 1947 1309 1714 600 
Q 1481 -109 1013 -844 
L 513 -844 
Q 928 -128 1133 580 
Q 1338 1288 1338 2009 
Q 1338 2731 1133 3434 
Q 928 4138 513 4856 
z
" transform="scale(0.015625)"/>
      </defs>
      <use xlink:href="#DejaVuSans-Oblique-41" transform="translate(0 0.015625)"/>
      <use xlink:href="#DejaVuSans-2b" transform="translate(87.890625 0.015625)"/>
      <use xlink:href="#DejaVuSans-Oblique-42" transform="translate(191.162109 0.015625)"/>
      <use xlink:href="#DejaVuSans-74" transform="translate(259.765625 0.015625)"/>
      <use xlink:href="#DejaVuSans-61" transform="translate(298.974609 0.015625)"/>
      <use xlink:href="#DejaVuSans-6e" transform="translate(360.253906 0.015625)"/>
      <use xlink:href="#DejaVuSans-68" transform="translate(423.632812 0.015625)"/>
      <use xlink:href="#DejaVuSans-28" transform="translate(487.011719 0.015625)"/>
      <use xlink:href="#DejaVuSans-Oblique-43" transform="translate(526.025391 0.015625)"/>
      <use xlink:href="#DejaVuSans-28" transform="translate(595.849609 0.015625)"/>
      <use xlink:href="#DejaVuSans-Oblique-78" transform="translate(634.863281 0.015625)"/>
      <use xlink:href="#DejaVuSans-2212" transform="translate(713.525391 0.015625)"/>
      <use xlink:href="#DejaVuSans-Oblique-44" transform="translate(816.796875 0.015625)"/>
      <use xlink:href="#DejaVuSans-29" transform="translate(893.798828 0.015625)"/>
      <use xlink:href="#DejaVuSans-29" transform="translate(932.8125 0.015625)"/>
     </g>
    </g>
    <g id="line2d_19">
     <path d="M 66.6 69.248563 
L 76.6 69.248563 
L 86.6 69.248563 
" style="fill: none; stroke-dasharray: 5.55,2.4; stroke-dashoffset: 0; stroke: #000000; stroke-width: 1.5"/>
    </g>
    <g id="text_18">
     <!-- $J_c = D = 0.441 \pm 0.001$  -->
     <g transform="translate(94.6 72.748563) scale(0.1 -0.1)">
      <defs>
       <path id="DejaVuSans-Oblique-4a" d="M 1069 4666 
L 1703 4666 
L 856 325 
Q 691 -522 298 -901 
Q -94 -1281 -800 -1281 
L -1050 -1281 
L -947 -750 
L -750 -750 
Q -328 -750 -109 -509 
Q 109 -269 225 325 
L 1069 4666 
z
" transform="scale(0.015625)"/>
       <path id="DejaVuSans-Oblique-63" d="M 3431 3366 
L 3316 2797 
Q 3109 2947 2876 3022 
Q 2644 3097 2394 3097 
Q 2119 3097 1870 3000 
Q 1622 2903 1453 2725 
Q 1184 2453 1037 2087 
Q 891 1722 891 1331 
Q 891 859 1127 628 
Q 1363 397 1844 397 
Q 2081 397 2348 469 
Q 2616 541 2906 684 
L 2797 116 
Q 2547 13 2283 -39 
Q 2019 -91 1741 -91 
Q 1044 -91 669 257 
Q 294 606 294 1253 
Q 294 1797 489 2255 
Q 684 2713 1069 3078 
Q 1331 3328 1684 3456 
Q 2038 3584 2456 3584 
Q 2700 3584 2940 3529 
Q 3181 3475 3431 3366 
z
" transform="scale(0.015625)"/>
      </defs>
      <use xlink:href="#DejaVuSans-Oblique-4a" transform="translate(0 0.78125)"/>
      <use xlink:href="#DejaVuSans-Oblique-63" transform="translate(29.492188 -15.625) scale(0.7)"/>
      <use xlink:href="#DejaVuSans-3d" transform="translate(90.195312 0.78125)"/>
      <use xlink:href="#DejaVuSans-Oblique-44" transform="translate(193.466797 0.78125)"/>
      <use xlink:href="#DejaVuSans-3d" transform="translate(289.951172 0.78125)"/>
      <use xlink:href="#DejaVuSans-30" transform="translate(393.222656 0.78125)"/>
      <use xlink:href="#DejaVuSans-2e" transform="translate(456.845703 0.78125)"/>
      <use xlink:href="#DejaVuSans-34" transform="translate(488.632812 0.78125)"/>
      <use xlink:href="#DejaVuSans-34" transform="translate(552.255859 0.78125)"/>
      <use xlink:href="#DejaVuSans-31" transform="translate(615.878906 0.78125)"/>
      <use xlink:href="#DejaVuSans-b1" transform="translate(698.984375 0.78125)"/>
      <use xlink:href="#DejaVuSans-30" transform="translate(802.255859 0.78125)"/>
      <use xlink:href="#DejaVuSans-2e" transform="translate(865.878906 0.78125)"/>
      <use xlink:href="#DejaVuSans-30" transform="translate(897.666016 0.78125)"/>
      <use xlink:href="#DejaVuSans-30" transform="translate(961.289062 0.78125)"/>
      <use xlink:href="#DejaVuSans-31" transform="translate(1024.912109 0.78125)"/>
      <use xlink:href="#DejaVuSans-20" transform="translate(1088.535156 0.78125)"/>
     </g>
    </g>
    <g id="line2d_20">
     <path d="M 66.6 83.947 
L 76.6 83.947 
L 86.6 83.947 
" style="fill: none; stroke: #ff0000; stroke-width: 1.5; stroke-linecap: square"/>
    </g>
    <g id="text_19">
     <!-- Onsager -->
     <g transform="translate(94.6 87.447) scale(0.1 -0.1)">
      <defs>
       <path id="DejaVuSans-4f" d="M 2522 4238 
Q 1834 4238 1429 3725 
Q 1025 3213 1025 2328 
Q 1025 1447 1429 934 
Q 1834 422 2522 422 
Q 3209 422 3611 934 
Q 4013 1447 4013 2328 
Q 4013 3213 3611 3725 
Q 3209 4238 2522 4238 
z
M 2522 4750 
Q 3503 4750 4090 4092 
Q 4678 3434 4678 2328 
Q 4678 1225 4090 567 
Q 3503 -91 2522 -91 
Q 1538 -91 948 565 
Q 359 1222 359 2328 
Q 359 3434 948 4092 
Q 1538 4750 2522 4750 
z
" transform="scale(0.015625)"/>
       <path id="DejaVuSans-65" d="M 3597 1894 
L 3597 1613 
L 953 1613 
Q 991 1019 1311 708 
Q 1631 397 2203 397 
Q 2534 397 2845 478 
Q 3156 559 3463 722 
L 3463 178 
Q 3153 47 2828 -22 
Q 2503 -91 2169 -91 
Q 1331 -91 842 396 
Q 353 884 353 1716 
Q 353 2575 817 3079 
Q 1281 3584 2069 3584 
Q 2775 3584 3186 3129 
Q 3597 2675 3597 1894 
z
M 3022 2063 
Q 3016 2534 2758 2815 
Q 2500 3097 2075 3097 
Q 1594 3097 1305 2825 
Q 1016 2553 972 2059 
L 3022 2063 
z
" transform="scale(0.015625)"/>
       <path id="DejaVuSans-72" d="M 2631 2963 
Q 2534 3019 2420 3045 
Q 2306 3072 2169 3072 
Q 1681 3072 1420 2755 
Q 1159 2438 1159 1844 
L 1159 0 
L 581 0 
L 581 3500 
L 1159 3500 
L 1159 2956 
Q 1341 3275 1631 3429 
Q 1922 3584 2338 3584 
Q 2397 3584 2469 3576 
Q 2541 3569 2628 3553 
L 2631 2963 
z
" transform="scale(0.015625)"/>
      </defs>
      <use xlink:href="#DejaVuSans-4f"/>
      <use xlink:href="#DejaVuSans-6e" x="78.710938"/>
      <use xlink:href="#DejaVuSans-73" x="142.089844"/>
      <use xlink:href="#DejaVuSans-61" x="194.189453"/>
      <use xlink:href="#DejaVuSans-67" x="255.46875"/>
      <use xlink:href="#DejaVuSans-65" x="318.945312"/>
      <use xlink:href="#DejaVuSans-72" x="380.46875"/>
     </g>
    </g>
   </g>
  </g>
 </g>
 <defs>
  <clipPath id="padc0b52999">
   <rect x="57.6" y="41.472" width="357.12" height="266.112"/>
  </clipPath>
 </defs>
</svg>
